<?xml version="1.0" encoding="utf-8"?>
<!-- Generator: Adobe Illustrator 25.0.0, SVG Export Plug-In . SVG Version: 6.00 Build 0)  -->
<svg version="1.1" id="Layer_1" xmlns="http://www.w3.org/2000/svg" xmlns:xlink="http://www.w3.org/1999/xlink" x="0px" y="0px"
	 viewBox="0 0 340.4 300.2" style="enable-background:new 0 0 340.4 300.2;" xml:space="preserve">
<style type="text/css">
	.st0{opacity:0.18;fill:#68E1FD;enable-background:new    ;}
	.st1{opacity:0.38;fill:#68E1FD;enable-background:new    ;}
	.st2{fill:#FFFFFF;}
	.st3{fill:#68E1FD;}
	.st4{opacity:0.39;fill:#68E1FD;enable-background:new    ;}
	.st5{fill:url(#SVGID_1_);}
	.st6{fill:url(#SVGID_2_);}
	.st7{fill:url(#SVGID_3_);}
	.st8{fill:url(#SVGID_4_);}
	.st9{fill:url(#SVGID_5_);}
	.st10{fill:url(#SVGID_6_);}
	.st11{fill:url(#SVGID_7_);}
	.st12{fill:url(#SVGID_8_);}
	.st13{fill:url(#SVGID_9_);}
	.st14{fill:url(#SVGID_10_);}
	.st15{fill:url(#SVGID_11_);}
	.st16{fill:url(#SVGID_12_);}
	.st17{fill:#473F47;}
	.st18{opacity:0.1;fill:#020202;enable-background:new    ;}
	.st19{fill:#FDB9A9;}
	.st20{fill:#B2857F;}
	.st21{fill:#D49B8E;}
	.st22{fill:url(#SVGID_13_);}
	.st23{opacity:0.51;fill:#FFFFFF;enable-background:new    ;}
	.st24{fill:url(#SVGID_14_);}
	.st25{fill:url(#SVGID_15_);}
	.st26{fill:url(#SVGID_16_);}
	.st27{fill:url(#SVGID_17_);}
	.st28{opacity:0.45;fill:#FFFFFF;enable-background:new    ;}
</style>
<path class="st0" d="M327.5,263.2c-7.7,11-19.1,19.7-32.1,22.6c-15,3.3-30.5-1-45.2-5.2c-21.7-6.2-44.1-12.3-66.6-10.3
	c-37.4,3.4-70.6,29.1-108.2,29.9c-23.6,0.3-46.2-9.2-62.5-26.2c-4.4-4.4-7.8-9.6-10.2-15.3c-2.5-6.6-2.9-14-2.5-21.1
	c1.2-18.5,7.1-36.5,17.3-52l0.2-0.4c10.3-16.1,16.2-34.6,17.2-53.6c0.3-6.9,0-13.9,0.5-20.8c0.9-13.2,4.8-26.1,10-38.3
	C53.1,54.7,64,38,79.2,26.2c10.3-8.1,22.3-13.7,34.2-19.2c6.1-2.8,12.3-5.7,19-6.6c4.7-0.5,9.4-0.4,14,0.3c4,0.5,7.9,1.2,11.8,2.1
	c22.7,5.2,43.7,16.1,61.1,31.5c18.3,16.2,33.6,34.4,48.8,53.5c20.8,26.1,44.7,50.3,59.6,80.1c2.8,5.7,5.3,11.6,7.2,17.7
	C343.3,211.7,343.1,241,327.5,263.2z"/>
<path class="st1" d="M327.5,263.2c-7.7,11-19.1,19.7-32.1,22.6c-15,3.3-30.5-1-45.2-5.2c-21.7-6.2-44.1-12.3-66.6-10.3
	c-37.4,3.4-70.6,29.1-108.2,29.9c-23.6,0.3-46.2-9.2-62.5-26.2c-4.4-4.4-7.8-9.6-10.2-15.3c-2.5-6.6-2.9-14-2.5-21.1
	c1.2-18.5,7.1-36.5,17.3-52h317.4C343.3,211.7,343.1,241,327.5,263.2z"/>
<path class="st2" d="M277.7,212.7c0,4.9-10.8,9-24.2,9s-24.2-4-24.2-9c0-0.6-0.3-5.9,0-6.5c2.2-4.1,12.5-2.5,24.2-2.5
	c11.3,0,21.3-2.6,24,1.3C277.9,205.7,277.7,212,277.7,212.7z"/>
<path class="st3" d="M277.7,212.7c0,4.9-10.8,9-24.2,9s-24.2-4-24.2-9c0-0.6-0.3-5.9,0-6.5c2.2-4.1,12.5-2.5,24.2-2.5
	c11.3,0,21.3-2.6,24,1.3C277.9,205.7,277.7,212,277.7,212.7z"/>
<ellipse class="st2" cx="253.5" cy="206.3" rx="24.2" ry="9"/>
<path class="st2" d="M265.1,137.4v63.2c0,1.4-1.1,2.4-2.5,2.4l0,0H260c-1.7,0-3-1.3-3-3l0,0l0,0v-62.7H265.1z"/>
<path class="st4" d="M265.1,140.8v59.8c0,1.4-1.1,2.4-2.5,2.4l0,0h-1.5v-28.7c-1.2,0.7-2.7,1-4.1,0.8l1.9-32.2L265.1,140.8z"/>
<path class="st3" d="M142.5,167.9c10.4,2.1,17.6,9.6,15.5,20s-11.2,15.1-21.6,13s-18.2-10.3-16.1-20.7S132.1,165.8,142.5,167.9z"/>
<linearGradient id="SVGID_1_" gradientUnits="userSpaceOnUse" x1="-1035.8744" y1="1283.6279" x2="-1021.5344" y2="1154.548" gradientTransform="matrix(0.2 -0.98 0.98 0.2 -865.1 -1072.6)">
	<stop  offset="1.000000e-02" style="stop-color:#000000"/>
	<stop  offset="0.13" style="stop-color:#000000;stop-opacity:0.69"/>
	<stop  offset="0.25" style="stop-color:#000000;stop-opacity:0.32"/>
	<stop  offset="1" style="stop-color:#000000;stop-opacity:0"/>
</linearGradient>
<path class="st5" d="M142.5,167.9c3.2,0.6,6.2,1.9,8.9,3.7c0.9,0.6,1.7,1.3,2.4,2c2.2,2.1,3.6,4.8,4.2,7.8c0.2,0.9,0.3,1.8,0.3,2.7
	c0,1.3-0.1,2.5-0.4,3.8c-0.1,0.5-0.2,1-0.4,1.4c-0.1,0.3-0.2,0.6-0.3,0.9c-0.7,2.1-1.8,4-3.2,5.7c-0.8,0.9-1.8,1.8-2.8,2.5
	c-4,2.8-9.3,3.6-15,2.5c-7.6-1.6-13.9-6.4-15.8-13c-0.7-2.5-0.8-5.2-0.3-7.7c0.2-1,0.5-2,0.9-2.9c0.1-0.3,0.3-0.6,0.4-0.9
	c1-2.2,2.6-4.1,4.5-5.6C130.4,167.6,136.3,166.7,142.5,167.9z"/>
<linearGradient id="SVGID_2_" gradientUnits="userSpaceOnUse" x1="-1051.2693" y1="1198.8713" x2="-998.2393" y2="1306.6714" gradientTransform="matrix(0.2 -0.98 0.98 0.2 -865.1 -1072.6)">
	<stop  offset="1.000000e-02" style="stop-color:#000000"/>
	<stop  offset="0.13" style="stop-color:#000000;stop-opacity:0.69"/>
	<stop  offset="0.25" style="stop-color:#000000;stop-opacity:0.32"/>
	<stop  offset="1" style="stop-color:#000000;stop-opacity:0"/>
</linearGradient>
<path class="st6" d="M144.4,179.2c1.2-0.1,2.5-0.4,3.6,0.1c0.3,0.1,0.6,0.4,1,0.5c0.7,0.3,1.4,0.6,2.1,0.7l3,0.7
	c0.5,0.1,1,0.2,1.5,0.2c0.5,0,1-0.1,1.5-0.2c0.3,0,0.7,0,1,0.1c0.2,0.9,0.3,1.8,0.3,2.7c-0.3,0.1-0.6,0.2-0.9,0.1
	c-0.3-0.1-0.5-0.5-0.7-0.7c-0.7-0.5-1.7,0.1-2.5,0.4c-1.2,0.2-2.4,0-3.4-0.6l-5.1-2.1c-0.4-0.2-0.7-0.3-1.1-0.4
	c-0.4,0-0.7,0-1.1,0.1c-1.2,0.2-2.4,0.3-3.6,0.5c-0.9,0.2-1.8,0.2-2.8,0.1c-0.6-0.1-1.2-0.4-1.8-0.5c-1.6-0.3-3.3,0.3-4.9-0.1
	c-0.6-0.2-1.2-0.4-1.8-0.7c-1.6-0.6-3.4-0.7-5-0.1c-0.4,0.2-0.8,0.2-1.1,0.1c-0.4-0.1-0.7-0.5-1.1-0.5c-0.4,0.1-0.7,0.5-0.6,0.9
	c0,0,0,0,0,0.1c0.2,0.4,0.4,0.7,0.8,1c1.7,1.5,3.6,3.1,5.8,3.4c1,0,2,0.2,3,0.5c0.5,0.3,1,0.6,1.6,0.8c0.5,0.2,1.1,0.1,1.7,0.3
	c0.9,0.4,1.7,0.9,2.4,1.5c1.1,0.5,2.3,0.8,3.5,0.8c3.4,0.2,6.8,0.3,10.1,0.2c1.3-0.1,2.5,0,3.8,0.4c0.5,0.3,1.1,0.4,1.7,0.5
	c0.4,0,0.8-0.1,1.2-0.3l1.2-0.4c-0.1,0.3-0.2,0.6-0.3,0.9c-0.9,0.5-2,0.8-3,0.8c-1-0.1-2-0.1-3.1-0.1c-0.7,0.1-1.4,0.4-2.2,0.4
	c-0.6,0-1.3,0-1.9-0.1c-4.1-0.5-8.5,0.6-12.4-0.9c-2.8-1.1-5.1-3.4-8.1-3.9c-0.7-0.1-1.4-0.2-2.1-0.4c-1.4-0.6-2.7-3.2-4.1-3.1
	c0.2,1,0.6,2,1,2.9c0.1,0.3,0.2,0.5,0.4,0.7c0.4,0.4,1.1,0.4,1.5,0l0,0c-0.1,1.7,1.5,3,3,3.8c0.5,0.4,1,0.6,1.6,0.6
	c0.4,0,0.7-0.2,1-0.1c0.3,0.1,0.5,0.3,0.6,0.6c0.7,0.8,1.6,1.5,2.5,1.9c0.8,0.5,1.7,0.9,2.6,1.2c0.9,0.3,1.9,0,2.7-0.6
	c0.5,0.9,1.4,1.4,2.3,1.5c1,0.1,1.9,0.3,2.8,0.7c0.2,0.2,0.5,0.3,0.7,0.3c0.3,0,0.6,0,0.8-0.1c1.1-0.2,2,0.5,3.1,0.8
	c1.9,0.6,3.9-0.1,5.8-0.8l1.3-0.5c-0.8,0.9-1.8,1.8-2.8,2.5c-1.1,0.1-2.2-0.4-3.3-0.3c-0.4,0.1-0.9,0.2-1.3,0.3
	c-0.5,0-1.1,0-1.6-0.1c-1.4-0.2-2.8-0.6-4.1-1.1c-1.1-1-2.5-1.4-3.9-1.1c-1.4,0.1-2.9-0.1-4.3-0.5c-0.3,0-0.6-0.1-0.9-0.3
	c-0.3-0.2-0.6-0.4-0.9-0.7c-1.8-1.4-4.4-1.4-6.5-2.6c-1.7-1-2.8-2.6-4.1-4.2c-0.7-2.5-0.8-5.2-0.3-7.7c0.2-1,0.5-2,0.9-2.9
	c1.2,0.9,2.7,1.3,4.2,1.2c0.6-0.2,1.2-0.3,1.8-0.6c2-0.5,4-0.5,6-0.1l7.4,1C141.9,179.1,143.1,179.2,144.4,179.2z"/>
<linearGradient id="SVGID_3_" gradientUnits="userSpaceOnUse" x1="-1038.5481" y1="1192.6207" x2="-985.5181" y2="1300.4208" gradientTransform="matrix(0.2 -0.98 0.98 0.2 -865.1 -1072.6)">
	<stop  offset="1.000000e-02" style="stop-color:#000000"/>
	<stop  offset="0.13" style="stop-color:#000000;stop-opacity:0.69"/>
	<stop  offset="0.25" style="stop-color:#000000;stop-opacity:0.32"/>
	<stop  offset="1" style="stop-color:#000000;stop-opacity:0"/>
</linearGradient>
<path class="st7" d="M151.5,171.6c0.9,0.6,1.7,1.3,2.4,2c-0.2-0.1-0.5-0.2-0.8-0.2c-0.6,0-1,0.6-1.6,0.6c-0.4,0-0.7-0.2-1-0.3
	c-0.7-0.3-1.5-0.4-2.3-0.3c-1.7,0-3.3,0.3-5,0.3c-1.7,0.1-3.3-0.4-4.8-1.3c-0.8-0.6-1.6-1.3-2.5-1.1c-0.3,0.1-0.6,0.3-0.8,0.5
	c-1.2,0.9-2.7,1.5-4.2,1.7c-0.3,0-0.6,0-0.9,0c-0.2,0-0.4-0.1-0.6-0.1c-1.1,0-2.2,0.1-3.3,0.5c-0.4,0.1-0.7,0.1-1.1,0.2
	c-0.5,0.2-1,0.5-1.5,0.9l-1.9,1.4c1-2.2,2.6-4.1,4.5-5.6c0.5,0,0.9,0.1,1.4,0.2c2.8,0.4,5.6-0.7,8.4-0.7c3.4,0,6.8,1.4,10.2,1.2
	c0.8-0.1,1.7-0.3,2.5-0.3C149.7,171.1,150.6,171.3,151.5,171.6z"/>
<linearGradient id="SVGID_4_" gradientUnits="userSpaceOnUse" x1="-1033.6968" y1="1212.9182" x2="-1018.9167" y2="1220.3882" gradientTransform="matrix(0.2 -0.98 0.98 0.2 -865.1 -1072.6)">
	<stop  offset="1.000000e-02" style="stop-color:#000000"/>
	<stop  offset="0.13" style="stop-color:#000000;stop-opacity:0.69"/>
	<stop  offset="0.25" style="stop-color:#000000;stop-opacity:0.32"/>
	<stop  offset="1" style="stop-color:#000000;stop-opacity:0"/>
</linearGradient>
<path class="st8" d="M120.3,180.6c-0.6-0.1-1.3-0.3-1.9-0.6c-0.2-0.1-0.3-0.2-0.4-0.3c-0.1-0.1-0.2-0.3-0.1-0.5
	c0.2-0.2,0.5-0.3,0.7-0.1c0.2,0.1,0.4,0.3,0.6,0.4c0.5,0.3,1.1,0.3,1.6-0.1l-0.2,1.3"/>
<path class="st3" d="M209,166.2c10.6-0.2,19.3,5.4,19.5,16s-7.5,17.2-18.2,17.4s-20-6-20.3-16.6S198.4,166.4,209,166.2z"/>
<linearGradient id="SVGID_5_" gradientUnits="userSpaceOnUse" x1="-1244.381" y1="1276.4095" x2="-1230.031" y2="1147.3296" gradientTransform="matrix(-2.000000e-02 -1 1 -2.000000e-02 -1043.38 -1031.62)">
	<stop  offset="1.000000e-02" style="stop-color:#000000"/>
	<stop  offset="0.13" style="stop-color:#000000;stop-opacity:0.69"/>
	<stop  offset="0.25" style="stop-color:#000000;stop-opacity:0.32"/>
	<stop  offset="1" style="stop-color:#000000;stop-opacity:0"/>
</linearGradient>
<path class="st9" d="M209,166.2c3.3-0.1,6.5,0.4,9.5,1.6c1,0.4,1.9,0.9,2.8,1.4c3.4,2,5.8,5.4,6.7,9.2c0.3,1.2,0.4,2.5,0.5,3.8
	c0,0.5,0,1,0,1.5c0,0.3,0,0.6-0.1,0.9c-0.2,2.2-0.8,4.3-1.8,6.3c-0.6,1.1-1.3,2.1-2.2,3c-3.3,3.6-8.2,5.6-14,5.7
	c-7.8,0.2-15-3.2-18.3-9.2c-1.3-2.3-2-4.8-2-7.4c0-1,0-2,0.2-3c0-0.3,0.1-0.7,0.2-1c0.5-2.4,1.6-4.6,3.2-6.5
	C197.1,168.5,202.7,166.3,209,166.2z"/>
<linearGradient id="SVGID_6_" gradientUnits="userSpaceOnUse" x1="-1260.0673" y1="1191.6095" x2="-1207.0372" y2="1299.4095" gradientTransform="matrix(-2.000000e-02 -1 1 -2.000000e-02 -1043.38 -1031.62)">
	<stop  offset="1.000000e-02" style="stop-color:#000000"/>
	<stop  offset="0.13" style="stop-color:#000000;stop-opacity:0.69"/>
	<stop  offset="0.25" style="stop-color:#000000;stop-opacity:0.32"/>
	<stop  offset="1" style="stop-color:#000000;stop-opacity:0"/>
</linearGradient>
<path class="st10" d="M213.3,176.7c1.2-0.3,2.4-0.9,3.6-0.7c0.4,0.1,0.7,0.2,1.1,0.3c0.7,0.2,1.5,0.2,2.2,0.2h3.1c0.5,0,1,0,1.5-0.1
	c0.5-0.1,1-0.4,1.5-0.5c0.3-0.1,0.7-0.1,1-0.1c0.4,0.8,0.7,1.7,0.9,2.6c-0.2,0.2-0.6,0.3-0.9,0.3c-0.3-0.1-0.5-0.4-0.9-0.5
	c-0.8-0.4-1.6,0.5-2.4,0.9c-1.1,0.4-2.3,0.5-3.4,0.2l-5.4-1c-0.4-0.1-0.8-0.1-1.2-0.1c-0.3,0.1-0.7,0.2-1,0.3l-3.5,1.4
	c-0.8,0.4-1.7,0.6-2.7,0.7c-0.6,0-1.3-0.1-1.9-0.1c-1.6,0-3.1,1-4.8,0.9c-0.6-0.1-1.3-0.1-1.9-0.3c-1.7-0.2-3.4,0.1-4.9,1
	c-0.3,0.3-0.7,0.4-1.1,0.4c-0.4,0-0.8-0.4-1.2-0.2c-0.4,0.2-0.5,0.6-0.4,1v0.1c0.2,0.4,0.6,0.7,1,0.8c2,1.1,4.2,2.2,6.5,2.1
	c1-0.2,2-0.3,3-0.2c0.6,0.2,1.1,0.3,1.7,0.5c0.6,0.1,1.1-0.1,1.7-0.1c0.9,0.2,1.8,0.5,2.6,0.9c1.2,0.3,2.4,0.3,3.6,0
	c3.3-0.6,6.6-1.2,9.9-2c1.2-0.4,2.5-0.5,3.8-0.5c0.6,0.1,1.2,0.2,1.8,0.1c0.4-0.1,0.8-0.3,1.1-0.5l1.1-0.7c0,0.3,0,0.6-0.1,0.9
	c-0.8,0.7-1.7,1.2-2.7,1.5c-1,0.3-2,0.2-3,0.6c-0.7,0.2-1.3,0.7-2,0.9c-0.6,0.2-1.3,0.3-1.9,0.3c-4.1,0.4-8.2,2.5-12.3,1.9
	c-3-0.4-5.8-2.2-8.8-2c-0.7,0.1-1.4,0.1-2.2,0.1c-1.5-0.2-3.3-2.5-4.7-2.1c0.4,0.9,1,1.8,1.6,2.6c0.1,0.2,0.3,0.4,0.5,0.6
	c0.5,0.3,1.1,0.2,1.5-0.3c0,0,0,0,0,0l0,0c0.2,1.7,2.1,2.6,3.7,3.1c0.5,0.3,1.1,0.3,1.7,0.2c0.3-0.1,0.6-0.4,1-0.3
	c0.3,0.1,0.6,0.2,0.8,0.4c0.9,0.6,1.9,1.1,2.9,1.4c0.9,0.3,1.8,0.5,2.8,0.6c1,0,1.9-0.4,2.5-1.1c0.6,0.7,1.6,1.1,2.6,1
	c1-0.1,1.9-0.1,2.9,0.1c0.2,0.1,0.5,0.2,0.8,0.2c0.3-0.1,0.5-0.1,0.8-0.3c1-0.4,2.1,0,3.1,0.1c2,0.1,3.8-1,5.5-2.1l1.2-0.7
	c-0.6,1.1-1.3,2.1-2.2,3c-1,0.3-2.2,0.1-3.3,0.4c-0.4,0.1-0.8,0.4-1.2,0.5c-0.5,0.2-1,0.2-1.6,0.2c-1.4,0.1-2.9,0.1-4.3-0.2
	c-1.2-0.7-2.8-0.8-4.1-0.1c-1.4,0.4-2.8,0.5-4.3,0.5c-0.3,0-0.6,0-0.9-0.1c-0.3-0.1-0.7-0.3-1-0.4c-2.1-1-4.6-0.4-6.9-1.1
	c-1.9-0.6-3.3-2-4.9-3.1c-1.3-2.3-2-4.8-2-7.4c0-1,0-2,0.2-3c1.4,0.6,2.9,0.7,4.4,0.3c0.6-0.3,1.1-0.6,1.7-1
	c1.8-0.9,3.8-1.4,5.9-1.4l7.5-0.6C210.9,177.3,212.1,177.1,213.3,176.7z"/>
<linearGradient id="SVGID_7_" gradientUnits="userSpaceOnUse" x1="-1247.2562" y1="1185.3088" x2="-1194.2262" y2="1293.1089" gradientTransform="matrix(-2.000000e-02 -1 1 -2.000000e-02 -1043.38 -1031.62)">
	<stop  offset="1.000000e-02" style="stop-color:#000000"/>
	<stop  offset="0.13" style="stop-color:#000000;stop-opacity:0.69"/>
	<stop  offset="0.25" style="stop-color:#000000;stop-opacity:0.32"/>
	<stop  offset="1" style="stop-color:#000000;stop-opacity:0"/>
</linearGradient>
<path class="st11" d="M218.6,167.8c1,0.4,1.9,0.9,2.8,1.4c-0.3-0.1-0.5-0.1-0.8,0c-0.5,0.2-0.9,0.8-1.4,0.9c-0.4,0-0.7,0-1.1-0.1
	c-0.8-0.1-1.6,0-2.4,0.2c-1.6,0.4-3.2,1-4.8,1.4c-1.6,0.4-3.4,0.4-4.9-0.2c-0.9-0.4-1.8-0.9-2.7-0.5c-0.3,0.2-0.5,0.4-0.7,0.6
	c-1,1.1-2.3,2-3.7,2.5c-0.3,0.1-0.5,0.2-0.8,0.2h-0.6c-1.1,0.2-2.1,0.6-3.1,1.2c-0.3,0.1-0.7,0.3-1,0.5c-0.5,0.3-0.9,0.7-1.3,1.2
	l-1.6,1.8c0.5-2.4,1.6-4.6,3.2-6.5c0.4-0.1,0.9-0.1,1.4-0.1c2.8-0.3,5.3-1.9,8.1-2.6c3.3-0.8,6.9-0.1,10.2-1.1
	c0.8-0.3,1.6-0.6,2.4-0.8C216.7,167.7,217.6,167.7,218.6,167.8z"/>
<linearGradient id="SVGID_8_" gradientUnits="userSpaceOnUse" x1="-1242.5352" y1="1205.6519" x2="-1227.7551" y2="1213.1218" gradientTransform="matrix(-2.000000e-02 -1 1 -2.000000e-02 -1043.38 -1031.62)">
	<stop  offset="1.000000e-02" style="stop-color:#000000"/>
	<stop  offset="0.13" style="stop-color:#000000;stop-opacity:0.69"/>
	<stop  offset="0.25" style="stop-color:#000000;stop-opacity:0.32"/>
	<stop  offset="1" style="stop-color:#000000;stop-opacity:0"/>
</linearGradient>
<path class="st12" d="M190.1,183.5c-0.7,0-1.3,0-1.9-0.2c-0.2,0-0.4-0.1-0.5-0.2c-0.2-0.1-0.2-0.3-0.2-0.5c0.1-0.2,0.4-0.3,0.6-0.3
	c0.2,0.1,0.5,0.2,0.7,0.3c0.5,0.2,1.2,0,1.5-0.4v1.3"/>
<path class="st3" d="M58.6,188.7c10.6-0.2,19.3,5.4,19.6,16s-7.6,17.2-18.2,17.4s-20-6-20.3-16.6S48,188.8,58.6,188.7z"/>
<linearGradient id="SVGID_9_" gradientUnits="userSpaceOnUse" x1="-1263.873" y1="1125.5471" x2="-1249.5331" y2="996.4671" gradientTransform="matrix(-2.000000e-02 -1 1 -2.000000e-02 -1043.38 -1031.62)">
	<stop  offset="1.000000e-02" style="stop-color:#000000"/>
	<stop  offset="0.13" style="stop-color:#000000;stop-opacity:0.69"/>
	<stop  offset="0.25" style="stop-color:#000000;stop-opacity:0.32"/>
	<stop  offset="1" style="stop-color:#000000;stop-opacity:0"/>
</linearGradient>
<path class="st13" d="M58.6,188.7c3.2-0.1,6.5,0.4,9.5,1.6c1,0.4,1.9,0.9,2.8,1.4c2.6,1.6,4.6,3.9,5.8,6.6c0.4,0.8,0.7,1.7,0.9,2.6
	c0.3,1.2,0.4,2.5,0.5,3.8c0,0.5,0,1,0,1.5c0,0.3,0,0.6-0.1,0.9c-0.2,2.2-0.8,4.3-1.8,6.3c-0.6,1.1-1.3,2.1-2.2,3
	c-3.3,3.6-8.2,5.6-14,5.7c-7.8,0.2-15-3.2-18.3-9.2c-1.3-2.3-2-4.8-2-7.4c0-1,0-2,0.2-3c0-0.3,0.1-0.7,0.2-1
	c0.5-2.4,1.6-4.6,3.2-6.5C46.7,191,52.3,188.8,58.6,188.7z"/>
<linearGradient id="SVGID_10_" gradientUnits="userSpaceOnUse" x1="-1279.5861" y1="1040.8687" x2="-1226.5562" y2="1148.6686" gradientTransform="matrix(-2.000000e-02 -1 1 -2.000000e-02 -1043.38 -1031.62)">
	<stop  offset="1.000000e-02" style="stop-color:#000000"/>
	<stop  offset="0.13" style="stop-color:#000000;stop-opacity:0.69"/>
	<stop  offset="0.25" style="stop-color:#000000;stop-opacity:0.32"/>
	<stop  offset="1" style="stop-color:#000000;stop-opacity:0"/>
</linearGradient>
<path class="st14" d="M62.9,199.2c1.2-0.3,2.4-0.9,3.6-0.7c0.4,0.1,0.7,0.2,1.1,0.3c0.7,0.2,1.5,0.2,2.3,0.2l3.1,0.1
	c0.5,0,1,0,1.5-0.1c0.5-0.1,1-0.4,1.5-0.5c0.3-0.1,0.7-0.1,1-0.1c0.4,0.8,0.7,1.7,0.9,2.6c-0.3,0.2-0.6,0.3-0.9,0.3
	c-0.3-0.1-0.6-0.4-0.9-0.5c-0.8-0.4-1.6,0.5-2.4,0.9c-1.1,0.4-2.3,0.5-3.4,0.2l-5.4-1c-0.4-0.1-0.8-0.1-1.2-0.1
	c-0.3,0-0.7,0.2-1,0.3l-3.5,1.3c-0.8,0.4-1.7,0.6-2.7,0.7c-0.6,0-1.3-0.1-1.9-0.1c-1.6,0-3.1,1-4.8,0.9c-0.6-0.1-1.3-0.1-1.9-0.3
	c-1.7-0.2-3.4,0.1-4.9,1c-0.3,0.3-0.7,0.4-1.1,0.4c-0.4,0-0.8-0.3-1.2-0.2c-0.4,0.2-0.5,0.6-0.4,1v0.1c0.2,0.4,0.6,0.7,1,0.8
	c2,1.1,4.2,2.2,6.5,2.1c1-0.2,2-0.3,3-0.2c0.6,0.2,1.1,0.3,1.7,0.5c0.6,0,1.1-0.1,1.7-0.1c0.9,0.2,1.8,0.5,2.6,0.9
	c1.2,0.3,2.4,0.3,3.6,0c3.3-0.6,6.7-1.2,9.9-2c1.2-0.4,2.5-0.5,3.8-0.5c0.6,0.1,1.2,0.2,1.8,0.1c0.4-0.1,0.8-0.3,1.1-0.5l1.1-0.7
	c0,0.3,0,0.6-0.1,0.9c-0.8,0.7-1.7,1.2-2.7,1.5c-1,0.3-2,0.2-3,0.6c-0.7,0.3-1.3,0.7-2,0.9c-0.6,0.2-1.3,0.3-1.9,0.3
	c-4.1,0.4-8.2,2.5-12.3,1.9c-3-0.4-5.8-2.2-8.8-2c-0.7,0.1-1.5,0.1-2.2,0.1c-1.5-0.2-3.3-2.5-4.7-2.1c0.5,0.9,1,1.8,1.7,2.6
	c0.1,0.2,0.3,0.4,0.5,0.6c0.5,0.3,1.2,0.2,1.5-0.3c0.3,1.7,2.1,2.5,3.7,3.1c0.5,0.3,1.1,0.3,1.7,0.2c0.3-0.2,0.6-0.3,1-0.3
	c0.3,0.1,0.6,0.2,0.8,0.4c0.9,0.6,1.9,1.1,2.9,1.3c0.9,0.3,1.8,0.5,2.8,0.6c1,0,1.9-0.4,2.5-1.1c0.7,0.7,1.6,1.1,2.6,1
	c1-0.1,1.9-0.1,2.9,0.1c0.2,0.1,0.5,0.2,0.8,0.2c0.3-0.1,0.6-0.1,0.8-0.3c1-0.4,2.1,0,3.2,0.1c2,0.1,3.8-1,5.5-2l1.2-0.7
	c-0.6,1.1-1.3,2.1-2.2,3.1c-1,0.3-2.2,0.1-3.3,0.4c-0.4,0.1-0.8,0.4-1.2,0.5c-0.5,0.2-1,0.2-1.6,0.2c-1.4,0.2-2.9,0.1-4.3-0.2
	c-0.9-0.4-1.8-0.5-2.8-0.5c-0.4,0.1-0.9,0.2-1.3,0.4c-1.4,0.4-2.8,0.5-4.3,0.5c-0.3,0-0.6,0-0.9-0.1c-0.3-0.1-0.7-0.3-1-0.5
	c-2.1-1-4.7-0.4-6.9-1.1c-1.9-0.6-3.3-2-4.9-3.2c-1.3-2.3-2-4.8-2-7.4c0-1,0-2,0.2-3c1.4,0.6,2.9,0.7,4.3,0.3c0.6-0.3,1.1-0.6,1.7-1
	c1.8-0.9,3.8-1.4,5.9-1.4l7.5-0.6C60.6,199.8,61.8,199.5,62.9,199.2z"/>
<linearGradient id="SVGID_11_" gradientUnits="userSpaceOnUse" x1="-1266.6849" y1="1034.5182" x2="-1213.6449" y2="1142.3182" gradientTransform="matrix(-2.000000e-02 -1 1 -2.000000e-02 -1043.38 -1031.62)">
	<stop  offset="1.000000e-02" style="stop-color:#000000"/>
	<stop  offset="0.13" style="stop-color:#000000;stop-opacity:0.69"/>
	<stop  offset="0.25" style="stop-color:#000000;stop-opacity:0.32"/>
	<stop  offset="1" style="stop-color:#000000;stop-opacity:0"/>
</linearGradient>
<path class="st15" d="M68.1,190.3c1,0.4,1.9,0.9,2.8,1.4c-0.3-0.1-0.6-0.1-0.8,0c-0.5,0.2-0.8,0.8-1.4,0.9c-0.4,0-0.7,0-1.1-0.1
	c-0.8-0.1-1.6,0-2.3,0.2c-1.6,0.4-3.2,1-4.8,1.4c-1.6,0.4-3.4,0.4-4.9-0.2c-0.9-0.4-1.8-1-2.7-0.5c-0.3,0.2-0.5,0.4-0.7,0.6
	c-1,1.1-2.3,2-3.7,2.5c-0.3,0.1-0.5,0.2-0.8,0.2H47c-1.1,0.2-2.1,0.6-3.1,1.2c-0.3,0.1-0.7,0.3-1,0.5c-0.5,0.3-0.9,0.7-1.3,1.2
	c-0.5,0.6-1,1.2-1.6,1.8c0.5-2.4,1.6-4.6,3.2-6.5c0.4-0.1,0.9-0.1,1.4-0.1c2.8-0.3,5.3-1.9,8.1-2.6c3.3-0.8,6.9-0.1,10.2-1.1
	c0.8-0.3,1.6-0.6,2.4-0.8C66.2,190.2,67.2,190.1,68.1,190.3z"/>
<linearGradient id="SVGID_12_" gradientUnits="userSpaceOnUse" x1="-1261.8851" y1="1054.8818" x2="-1247.1051" y2="1062.3518" gradientTransform="matrix(-2.000000e-02 -1 1 -2.000000e-02 -1043.38 -1031.62)">
	<stop  offset="1.000000e-02" style="stop-color:#000000"/>
	<stop  offset="0.13" style="stop-color:#000000;stop-opacity:0.69"/>
	<stop  offset="0.25" style="stop-color:#000000;stop-opacity:0.32"/>
	<stop  offset="1" style="stop-color:#000000;stop-opacity:0"/>
</linearGradient>
<path class="st16" d="M39.7,206c-0.7,0-1.3,0-2-0.1c-0.2,0-0.3-0.1-0.5-0.2c-0.1-0.1-0.2-0.3-0.2-0.5c0.1-0.3,0.4-0.3,0.6-0.3
	c0.2,0.1,0.5,0.2,0.7,0.3c0.5,0.2,1.1,0,1.5-0.4v1.3"/>
<ellipse class="st0" cx="193.5" cy="200.7" rx="23.1" ry="4.7"/>
<path class="st0" d="M55.9,224.6c-3.2,2-6.6,4.6-6.9,8.3c-0.3,3.5,2.5,6.6,5.4,8.7c10.4,7.7,24.1,9.6,37.1,8.8s25.7-4.1,38.5-5.6
	c19-2.2,38.5-0.6,57.2-4.9c4.4-1,8.9-2.4,12.2-5.4s5.3-8,3.5-12.2c-1.3-3.1-4.4-5.1-7.3-6.7c-21.8-11.8-47.9-11.9-72.6-9.9
	c-12.8,1-24.9,3.9-37.6,6C74.5,213.6,65.3,218.7,55.9,224.6z"/>
<path class="st17" d="M80.9,216.4c1.1,3.4,2.5,6.6,4.3,9.7c1.3,2.4,2.6,4.9,4.7,6.5c4,3.1,9.7,2.6,14.8,1.9l13.9-2
	c2-0.3,4.2-0.7,5.6-2.2c1.5-1.7,1.5-4.2,1.7-6.4s0.9-4.9,3.1-5.6c1-0.3,1.9-0.3,2.9-0.2c6.2,0.2,12.4,0,18.5-0.8
	c0.6,0,1.3-0.2,1.8-0.6c0.4-0.4,0.6-1,0.7-1.6c1.9-8,1.2-16.5-1.8-24.1c-0.2-0.7-0.6-1.3-1.2-1.8c-0.6-0.3-1.2-0.5-1.8-0.5
	c-8.1-0.6-16.2-0.3-24.1,1c-7.6,1.2-15,1.6-22.7,2.1c-12.3,0.9-23.1,9-20.7,22.6C80.6,215,80.7,215.7,80.9,216.4z"/>
<path class="st2" d="M155.8,157.1c0,0.8-0.1,1.6-0.4,2.4c-0.4,0.9-1.1,1.7-1.9,2.4c-1.6,1.6-3.9,2.4-6.1,2.1
	c-1.1-0.2-2.1-0.7-3.1-1.3c-2.6-1.4-5.4-3.6-8.2-4.4c-1.6-0.5-4.5,0-5.3-1.8c-0.6-1.3-0.6-3.5-0.8-4.9c-1.2-7.5-2.4-15-3.6-22.6
	c8.8,6.5,17.8,12.8,26.3,19.6c0.5,0.3,0.9,0.7,1.3,1.2c0.9,1.3,1.5,2.9,1.6,4.5C155.7,155.3,155.8,156.2,155.8,157.1z"/>
<path class="st2" d="M132.2,166.4c-0.2,1.3-0.2,2.7-0.4,4c-0.9,7.4-3.7,14.8-2.5,22.3c0.3,1.7,0.7,3.5,0,5c-0.8,1.3-2.1,2.2-3.5,2.6
	c-7,2.7-14.6,2.8-22.1,2.8c-5.6,0-13.7,0.6-18.4-3c-2-1.6-2.4-4-2.8-6.5c-1.2-7.8-0.8-15.9-0.3-23.7c0.1-1,0.1-2.1,0.2-3.1
	c0.5-7.1,1.3-14.2,2.4-21.3c0.8-5.1,1.9-10.6,5.8-14c5.1-4.6,14.2-6.8,20.9-7.1c2.2-0.1,4.4,0,6.5,0.5c3,0.9,5.8,2.3,8.3,4.1
	c3,2,5.8,3.8,6.9,7.2c1.3,3.9,2,8,2.1,12.2c0.1,3.9-0.3,7.8-1.3,11.5c-0.4,1.9-1.2,3.6-1.6,5.5C132.4,165.8,132.3,166.1,132.2,166.4
	z"/>
<path class="st18" d="M96.5,204c-1.5,0.3-7.7-2.4-8.4-2.6c-1-0.3-1.8-0.9-2.7-1.3c-4.7-1.9-3.5-15.7-3.4-19.4
	c0-9.9-0.6-20.3,0.6-30.1c0.5-3.8,1.1-7.6,2.8-11c1.2-2.4,2.9-4.4,5.1-5.8c3.1-2,4.2-0.8,6.1,2c3.1,4.4,5,9.6,5.6,15
	c0.2,1.5,0.1,2.9-0.1,4.4c-0.7,2.6-1.9,5.1-3.6,7.3l-5,7.6c-0.5,0.6-0.7,1.3-0.8,2c0.1,0.5,0.3,1,0.7,1.5
	c6.6,9.3,16.6,15.6,27.8,17.3c-0.7,2.1-3,3.2-5.1,3.4c-2.2,0-4.3-0.3-6.4-0.9c-2.1-0.4-4.4-0.6-6.4,0.4c-1.5,0.8-2.6,2.2-3.9,3.3
	s-3.2,1.9-4.7,1.1c-0.2,1.7,0.4,3.4,1.6,4.6c0.3,0.2,0.5,0.5,0.6,0.8C96.9,203.8,96.8,204,96.5,204z"/>
<path class="st19" d="M129.4,118.6c-0.7,1.3-1.5,2.6-2.2,3.8c-1.8,2.9-4.4,5.2-7.9,5.1c-0.8,0-1.6-0.1-2.3-0.3l-0.5-0.1h-0.2
	c-0.4-0.1-0.8-0.2-1.2-0.2c-0.1,0-0.2,0-0.3,0c-1,0.2-1.4,1.8-1.5,2.7c0,1.1-0.4,2.1-1.1,2.9c0,0-0.1,0.1-0.1,0.1
	c-0.7,0.5-1.5,0.7-2.4,0.5c-1.7-0.3-3.2-1.2-4.3-2.6c-0.6-0.9-1-1.9-1.2-2.9c-0.1-0.3-0.1-0.6-0.1-0.9c0-0.5,0.1-1,0.2-1.5
	c0.2-0.7,0.5-1.5,0.8-2.2c0.7-1.4,1.4-2.8,2-4.2c0.2-0.8,0.4-1.5,0.7-2.2c0.2-0.4,0.5-0.9,0.6-1.4c0.4-1.4,0-3,0.3-4.4
	c0.3-1.4,0.8-2.8,1.4-4.2c1.2-2.7,3.1-5,5.4-6.7c4.3-3.1,10.7-3.5,14.8-0.2c2,1.7,3.4,4.1,3.7,6.7
	C134.6,110.8,131.5,114.9,129.4,118.6z"/>
<path class="st20" d="M91.1,158.8c0,0.5-0.2,0.9-0.5,1.3l-1.6,2.4c-0.1,0.1-0.3,0.2-0.4,0.3c-0.3,0.3-1.2,1.5-1.5,1.5
	c-0.2,0-0.3-0.2-0.4-0.4c-2.4-3.4-5.3-6.4-8.6-9c0.8-0.7,1.6-1.4,2.5-2.1l1.8-1.5c0.3-0.3,0.7-0.5,1.2-0.6c0.5,0.1,0.9,0.4,1.2,0.8
	l5.6,6.1C90.8,158,91,158.4,91.1,158.8z"/>
<path class="st2" d="M103.4,146.1c-0.2,1.9-0.5,3.7-1,5.5c-4.6,3.5-9,7.1-13.3,10.9c-0.1,0.1-0.3,0.2-0.4,0.3
	c-0.3,0.3-1.2,1.5-1.5,1.5s-0.3-0.2-0.4-0.4c-2.4-3.4-5.3-6.4-8.6-9c-1.3-1-2.6-2.1-3.9-3.1c-0.5-0.3-0.9-0.8-1-1.4
	c0-0.4,0.1-0.8,0.3-1.1c3.2-5.8,7.4-10.9,12.6-15.1c1.1-1.1,2.4-1.9,3.7-2.6l0.7-0.2c0.8-0.2,1.7-0.3,2.5-0.4
	c1.7-0.3,3.5-0.2,5.1,0.3C103.9,133.4,103.9,141.2,103.4,146.1z"/>
<path class="st17" d="M129.7,112.7c1,0,2-0.4,2.7-1.1c0.1,1.2,2.1,1.3,2.8,0.4s0.6-2.3,0.4-3.5c1.6,0,2.9-1.2,2.9-2.8c0,0,0,0,0,0
	c0-0.4-0.1-0.8-0.2-1.2c-0.2-0.4-0.6-0.9-0.6-1.4c0.1-0.4,0.2-0.7,0.4-1c0.4-1.1,0.2-2.4-0.6-3.3c-0.8-0.9-1.7-1.6-2.8-2.2
	c0.9-0.9,1-2.2,0.2-3.2c-0.8-0.9-1.8-1.6-2.9-1.9c-1.6-0.6-3.5-1-5.1-0.2c-1.6-1.6-4-2-6-0.8c-0.4,0.3-0.8,0.5-1.3,0.5
	c-0.3,0-0.6-0.2-0.9-0.4c-1.1-0.8-2.4-1.3-3.8-1.4c-1.4,0-2.6,1.1-2.8,2.5c-1-0.1-2,0.4-2.5,1.3c-0.1,0.3-0.3,0.6-0.5,0.8
	c-0.4,0.3-0.9,0.1-1.3,0.1c-1.8-0.3-3.5,0.9-3.8,2.7c-0.3,1.6,0.7,3.2,2.3,3.7c-0.4,0.7-0.4,1.6-0.1,2.4c0.3,0.9,1,1.2,1.5,1.9
	c0.3,0.4,0.2,0.4,0,1c-0.4,1.7-0.6,3.5-0.3,5.2c0.1,0.8,0.3,1.6,0.4,2.4c0.1,1.2,0,2.5-0.2,3.7l2.8-4.2c0,0,0.1-0.1,0.1-0.2
	c0-0.1,0-0.2-0.1-0.3c-1.2-1.5-1.1-3.6,0.1-5.1c0.3-0.5,0.9-0.7,1.5-0.7c0.7,0.1,1,0.9,1.2,1.5c0.2,0.7,0.3,1.4,0.3,2.1
	c0.7-1,1.6-1.8,2.5-2.5c0.4-0.3,1-0.8,1.4-0.5s0.5,1.3,0.6,1.7c0.8-0.1,1.6-0.4,2.4-0.8c-0.5,1.3-0.1,2.8,0.9,3.8
	c1.1,0.9,3.1,0.5,3.4-0.9c-0.1,0.6,2.8,0.2,3,0.2C128.1,111.8,128.8,112.5,129.7,112.7z"/>
<path class="st21" d="M112.8,126.3c0.8,0.3,1.5,0.5,2.3,0.7c-0.1,0-0.2,0-0.3,0c-1,0.2-1.4,1.8-1.5,2.7c0,1.1-0.4,2.1-1.1,2.9
	c-0.3-0.1-0.6-0.2-0.9-0.4c-0.3-0.2-0.5-0.4-0.7-0.7c-1.4-1.9-1.6-4.5-0.3-6.6C111.1,125.5,111.9,126,112.8,126.3z"/>
<path class="st3" d="M138.6,138c-1,2-2.6,3.8-4.5,4.9c-9.7,6-27.9,0.9-27.9,0.9c-8-5-8-12.4-8-12.4l1.1-0.2l41-7.6l0.8-0.1
	C141.1,123.4,144.9,124.9,138.6,138z"/>
<linearGradient id="SVGID_13_" gradientUnits="userSpaceOnUse" x1="156.1805" y1="583.4802" x2="141.9105" y2="628.3401" gradientTransform="matrix(1 0 0 1 -36.87 -456.16)">
	<stop  offset="1.000000e-02" style="stop-color:#000000"/>
	<stop  offset="0.13" style="stop-color:#000000;stop-opacity:0.69"/>
	<stop  offset="0.25" style="stop-color:#000000;stop-opacity:0.32"/>
	<stop  offset="1" style="stop-color:#000000;stop-opacity:0"/>
</linearGradient>
<path class="st22" d="M134.1,142.9c-9.7,6-27.9,0.9-27.9,0.9c-8-5-8-12.4-8-12.4S108.7,146.5,134.1,142.9z"/>
<path class="st3" d="M127.9,141.3c-13.4,1.9-24.8-6.4-28.6-10.1l41-7.6C140.7,127.2,141.2,139.3,127.9,141.3z"/>
<path class="st23" d="M127.9,141.3c-13.4,1.9-24.8-6.4-28.6-10.1l41-7.6C140.7,127.2,141.2,139.3,127.9,141.3z"/>
<path class="st19" d="M122.5,145.3c-0.4,0.7-0.9,1.3-1.4,2c-1.5,1.9-3.1,3.6-4.9,5.3l-2,2c-5.8,5.8-11.6,11.6-17.7,17
	c-0.7,0.6-1.5,1.3-2.2,1.9c-1.6,1.4-3.5,2.4-5.4,3.1c-3.3,0.9-6.9,0.5-9.9-1.2l0,0c-3.5-1.7-5.9-5-6.6-8.8c-0.2-2.8,0.6-5.5,2.3-7.7
	c1-1.3,2.1-2.6,3.4-3.6c3.3,2.6,6.2,5.6,8.6,9c0.1,0.2,0.2,0.3,0.4,0.4c0.3,0,1.2-1.2,1.5-1.5c0.1-0.1,0.2-0.2,0.4-0.3l-1.2,1.8
	c1.5-0.2,2.7-1.3,3.9-2.3c3.3-2.8,7-5.1,10.3-7.9s6.1-6.4,6.9-10.7c0.1-0.6,0.3-1.3,0.6-1.8c0.4-0.6,1.1-0.7,1.7-0.3
	c0.2,0.2,0.3,0.5,0.6,0.6c0.3,0.1,0.7,0,0.9-0.2c1.7-1.1,3.3-2.6,5.2-3.3s4.5-0.4,5.5,1.5S123.5,143.6,122.5,145.3z"/>
<path class="st19" d="M154.1,149.7l-4.6-3.3c-1-0.6-1.8-1.4-2.5-2.3c-1.8-2.5-1-5.9-1.6-8.9c-0.6-3.1-2.7-5.8-5.6-7.2
	c-0.4-0.2-0.8-0.3-1.2-0.3c-0.9,0.1-1.4,1-1.7,1.9c-0.5,1.4-0.8,2.9-0.9,4.5c-0.9-0.7-2.2,0.4-2.2,1.6c0.2,1.1,0.6,2.2,1.3,3.1
	c0.6,1.3,1.1,2.6,1.4,3.9c1.2,4.1,2.7,8.2,4.5,12.1c0.9,2.3,2.2,4.5,3.7,6.5c1.9,2.3,3.7,3.7,6.7,3c6.2-1.4,2.8-9,3.5-13.1
	c0.1-0.2,0.1-0.4,0-0.6c-0.1-0.2-0.2-0.3-0.4-0.4L154.1,149.7z"/>
<path class="st19" d="M142.3,205.4c-3.7,3.8-8.2,7.1-12.1,10.6c-3.3,2.9-6.3,6.1-9.2,9.5c-0.7,0.7-1.1,1.5-1.3,2.5
	c-0.1,1.8,1.7,3.1,3.3,4c4.3,2.3,9.3,4.5,13.9,3c0.9-0.2,1.6-0.7,2.1-1.5c0.5-0.8,0.4-1.8-0.3-2.4c1.1-0.5,0.3-2.3-0.8-2.7
	s-2.5-0.5-3.3-1.3l10.4-6.5c4.1-2.6,8.4-5.3,10.9-9.4c1-1.7,1.8-3.4,2.4-5.3c1-2.4,1.3-4.9,1.1-7.5c-0.7-3.9-4.1-6.8-8.1-6.8
	c-0.3,0-0.6,0.2-0.7,0.5v0.1c-1,3.2-2.6,6.3-4.6,9C144.9,202.6,143.6,204,142.3,205.4z"/>
<path class="st19" d="M104.9,219.4c-2.3,1-4.7,2.1-6,4.2c-1.4,2.3-1,5.3-0.1,7.8c0.3,0.8,0.7,1.6,1.3,2.3c1.3,1.3,3.3,1.5,5.1,1.5
	c4,0.2,8,0.4,11.8-0.5c5.4-1.2,10.2-4.5,15.1-7c2.7-1.4,5.5-2.6,8.3-3.5c3.9-1.4,7.9-2.6,11.9-3.4c3.6-0.6,6.8-3,10.5-2.9
	c0.6,0.1,1.2,0.1,1.9,0c0.7-0.3,1.3-0.7,1.8-1.3c0.7-0.5,1.2-1.2,1.6-2c0.4-0.8,0.2-1.8-0.4-2.4c-0.5-0.4-1.3-0.6-1.3-1.3
	c0.1-0.3,0.3-0.6,0.5-0.8c1.1-1,1.5-3,0.3-3.8c-0.8-0.6-2.1-0.4-2.8-1.2c-0.1-0.2-0.3-0.5-0.5-0.7c-0.3-0.2-0.6-0.3-0.9-0.3
	c-2-0.1-3.7,1.4-5.3,2.6c-2,1.6-4.2,3-6.5,4.2c-1.8,0.7-3.6,1.3-5.4,1.6c-4.9,1.6-10,2.6-15.1,3.1c-4.8,0.4-9.5,0.4-14.3,1.1
	c-1.7,0.2-3.3,0.3-5,0.5C109.3,217.7,107,218.4,104.9,219.4z"/>
<path class="st17" d="M132.8,126.6l-0.1,1c0,0.1,0,0.1,0,0.2c0,0.1,0.1,0.1,0.2,0.1c0.3,0.1,0.7,0.2,1,0.2
	C133.6,127.6,133.2,127.1,132.8,126.6"/>
<path class="st17" d="M130.1,132.8l-0.1,1c0,0.1,0,0.1,0,0.2c0,0.1,0.1,0.1,0.2,0.1c0.3,0.1,0.7,0.2,1,0.2
	C130.9,133.8,130.5,133.3,130.1,132.8"/>
<path class="st17" d="M123.4,129.3l-0.1,1c0,0.1,0,0.1,0,0.2c0,0.1,0.1,0.1,0.2,0.1c0.3,0.1,0.7,0.2,1,0.2
	C124.1,130.3,123.8,129.8,123.4,129.3"/>
<path class="st17" d="M115.9,131.4l-0.1,1c0,0.1,0,0.1,0,0.2c0,0.1,0.1,0.1,0.2,0.1c0.3,0.1,0.7,0.2,1,0.2
	C116.7,132.4,116.3,131.8,115.9,131.4"/>
<path class="st17" d="M120.6,129.8l-0.1,1c0,0.1,0,0.1,0,0.2c0,0.1,0.1,0.1,0.2,0.1c0.3,0.1,0.7,0.2,1,0.2
	C121.4,130.8,121.1,130.3,120.6,129.8"/>
<path class="st17" d="M114,135.7l-0.1,1c0,0.1,0,0.1,0,0.2c0,0,0.1,0.1,0.2,0.1c0.3,0.1,0.7,0.2,1,0.2
	C114.8,136.7,114.4,136.1,114,135.7"/>
<path class="st3" d="M203.3,182.9c0,12.4-6.8,22.4-19.2,22.4s-19.9-9.3-19.9-21.6s7.5-23.3,19.9-23.3S203.3,170.5,203.3,182.9z"/>
<linearGradient id="SVGID_14_" gradientUnits="userSpaceOnUse" x1="214.4861" y1="695.3407" x2="231.2461" y2="544.5207" gradientTransform="matrix(1 0 0 1 -36.87 -456.16)">
	<stop  offset="1.000000e-02" style="stop-color:#000000"/>
	<stop  offset="0.13" style="stop-color:#000000;stop-opacity:0.69"/>
	<stop  offset="0.25" style="stop-color:#000000;stop-opacity:0.32"/>
	<stop  offset="1" style="stop-color:#000000;stop-opacity:0"/>
</linearGradient>
<path class="st24" d="M203.3,182.9c0.1,3.8-0.7,7.6-2.1,11.1c-0.5,1.1-1.1,2.2-1.8,3.3c-1.9,3-4.6,5.3-7.9,6.7c-1,0.4-2,0.8-3,1
	c-1.4,0.3-2.9,0.5-4.4,0.5c-0.6,0-1.2,0-1.7-0.1c-0.4,0-0.7,0-1.1-0.1c-2.5-0.3-5-1.1-7.3-2.3c-1.3-0.7-2.5-1.6-3.5-2.6
	c-4.1-3.9-6.4-9.8-6.4-16.6c0-9.1,4.1-17.4,11.2-21.1c2.7-1.4,5.7-2.1,8.8-2.1c1.2,0,2.4,0.1,3.5,0.3c0.4,0.1,0.8,0.1,1.1,0.2
	c2.8,0.6,5.3,2,7.5,3.9C200.9,168.9,203.3,175.5,203.3,182.9z"/>
<linearGradient id="SVGID_15_" gradientUnits="userSpaceOnUse" x1="196.1476" y1="596.4163" x2="258.1076" y2="722.3763" gradientTransform="matrix(1 0 0 1 -36.87 -456.16)">
	<stop  offset="1.000000e-02" style="stop-color:#000000"/>
	<stop  offset="0.13" style="stop-color:#000000;stop-opacity:0.69"/>
	<stop  offset="0.25" style="stop-color:#000000;stop-opacity:0.32"/>
	<stop  offset="1" style="stop-color:#000000;stop-opacity:0"/>
</linearGradient>
<path class="st25" d="M190.9,187.6c0.4,1.4,1,2.8,0.8,4.2c-0.1,0.4-0.3,0.8-0.4,1.3c-0.2,0.9-0.3,1.7-0.3,2.6c0,1.2-0.1,2.4-0.1,3.6
	c0,0.6,0,1.2,0.1,1.8c0.1,0.6,0.4,1.1,0.6,1.7c0.1,0.4,0.1,0.8,0.1,1.2c-1,0.4-2,0.8-3,1c-0.2-0.3-0.3-0.6-0.3-1
	c0.1-0.4,0.4-0.6,0.6-1c0.4-0.9-0.6-1.9-1-2.8c-0.5-1.3-0.5-2.7-0.1-4c0.4-2.1,0.8-4.2,1.3-6.3c0.1-0.4,0.2-0.9,0.1-1.4
	c-0.1-0.4-0.2-0.8-0.3-1.2c-0.5-1.4-1-2.7-1.4-4.1c-0.4-1-0.7-2-0.7-3.1c0-0.7,0.2-1.5,0.2-2.2c0-1.9-1-3.7-1-5.6
	c0.1-0.7,0.2-1.5,0.4-2.2c0.3-2,0-4-1-5.7c-0.3-0.4-0.4-0.8-0.4-1.3c0-0.5,0.4-0.9,0.3-1.4c-0.2-0.5-0.8-0.7-1.2-0.4h-0.1
	c-0.4,0.3-0.8,0.7-1,1.1c-1.3,2.3-2.7,4.8-2.6,7.5c0.2,1.2,0.3,2.4,0.1,3.5c-0.2,0.7-0.4,1.3-0.6,2c-0.1,0.7,0.1,1.3,0.1,2
	c-0.1,1.1-0.8,2-1.1,3.1c-0.3,1.4-0.4,2.8-0.1,4.1c0.6,3.9,1.3,7.8,2.1,11.6c0.4,1.4,0.6,2.9,0.4,4.4c-0.2,0.7-0.2,1.3-0.2,2
	c0.1,0.5,0.3,0.9,0.6,1.3l0.8,1.3c-0.4,0-0.7,0-1.1-0.1c-0.8-0.9-1.3-2-1.6-3.2c-0.3-1.2-0.2-2.4-0.6-3.5c-0.3-0.8-0.7-1.6-1-2.4
	c-0.2-0.7-0.3-1.5-0.3-2.2c-0.4-4.9-2.7-9.6-1.9-14.4c0.6-3.5,2.7-6.7,2.6-10.2c-0.1-0.8-0.1-1.7,0-2.5c0.3-1.7,3-3.8,2.6-5.5
	c-1.1,0.5-2.1,1.1-3.1,1.8c-0.3,0.1-0.5,0.3-0.7,0.6c-0.4,0.6-0.3,1.3,0.3,1.7c0,0,0,0,0,0l0,0c-2,0.3-3,2.4-3.7,4.3
	c-0.3,0.6-0.4,1.3-0.3,2c0.1,0.4,0.4,0.7,0.4,1.1c-0.1,0.3-0.3,0.6-0.5,0.9c-0.8,1-1.3,2.1-1.6,3.3c-0.4,1-0.7,2.2-0.8,3.3
	c-0.1,1.1,0.4,2.3,1.3,3c-0.9,0.8-1.3,1.9-1.2,3c0.1,1.1,0.1,2.2-0.1,3.4c-0.1,0.3-0.2,0.6-0.2,0.9c0.1,0.3,0.2,0.6,0.3,0.9
	c0.4,1.2-0.1,2.4-0.2,3.7c-0.2,2.3,1,4.4,2.3,6.4l0.8,1.4c-1.3-0.7-2.5-1.6-3.5-2.6c-0.4-1.2,0-2.6-0.4-3.8
	c-0.2-0.5-0.4-0.9-0.6-1.4c-0.2-0.6-0.2-1.2-0.2-1.8c-0.1-1.7,0-3.4,0.4-5c0.4-1,0.7-2.1,0.7-3.2c-0.1-0.5-0.2-1-0.4-1.5
	c-0.4-1.6-0.5-3.3-0.4-5c0-0.4,0-0.7,0.1-1.1c0.1-0.4,0.3-0.8,0.6-1.2c1.2-2.4,0.6-5.4,1.4-8c0.7-2.2,2.4-3.8,3.8-5.6
	c2.7-1.4,5.7-2.1,8.8-2.1c1.2,0,2.4,0.1,3.5,0.3c-0.6,1.7-1.1,3.5-0.4,5.1c0.3,0.7,0.7,1.4,1.1,2c1.1,2.1,1.3,4.5,1.5,6.9l0.6,8.8
	C190.4,185,190.6,186.3,190.9,187.6z"/>
<linearGradient id="SVGID_16_" gradientUnits="userSpaceOnUse" x1="211.0763" y1="589.0718" x2="273.0363" y2="715.0218" gradientTransform="matrix(1 0 0 1 -36.87 -456.16)">
	<stop  offset="1.000000e-02" style="stop-color:#000000"/>
	<stop  offset="0.13" style="stop-color:#000000;stop-opacity:0.69"/>
	<stop  offset="0.25" style="stop-color:#000000;stop-opacity:0.32"/>
	<stop  offset="1" style="stop-color:#000000;stop-opacity:0"/>
</linearGradient>
<path class="st26" d="M201.2,194c-0.5,1.1-1.1,2.2-1.8,3.3c0.1-0.3,0.1-0.7,0-1c-0.2-0.6-0.9-1-1-1.7c0-0.4,0-0.8,0.1-1.2
	c0.1-0.9,0.1-1.9-0.1-2.8c-0.4-1.9-1.1-3.8-1.5-5.7c-0.5-1.9-0.3-3.9,0.4-5.8c0.4-1,1.2-2.1,0.7-3.1c-0.2-0.3-0.4-0.6-0.7-0.8
	c-1.3-1.2-2.3-2.7-2.9-4.4c-0.1-0.3-0.2-0.7-0.2-1v-0.7c0-1.3-0.8-2.4-1.4-3.6c-0.2-0.4-0.3-0.8-0.5-1.2c-0.4-0.6-0.8-1.1-1.4-1.5
	l-2.1-1.9c2.8,0.6,5.3,2,7.5,3.9c0.1,0.5,0.1,1.1,0.1,1.6c0.2,3.3,2.1,6.3,2.8,9.5c0.8,3.9-0.1,8.1,1.1,11.9
	c0.3,0.9,0.7,1.8,0.9,2.8C201.4,191.8,201.4,192.9,201.2,194z"/>
<linearGradient id="SVGID_17_" gradientUnits="userSpaceOnUse" x1="216.7104" y1="613.0692" x2="233.9804" y2="621.7991" gradientTransform="matrix(1 0 0 1 -36.87 -456.16)">
	<stop  offset="1.000000e-02" style="stop-color:#000000"/>
	<stop  offset="0.13" style="stop-color:#000000;stop-opacity:0.69"/>
	<stop  offset="0.25" style="stop-color:#000000;stop-opacity:0.32"/>
	<stop  offset="1" style="stop-color:#000000;stop-opacity:0"/>
</linearGradient>
<path class="st27" d="M183.6,160.4c0-0.8,0.1-1.5,0.2-2.3c0-0.2,0.1-0.4,0.2-0.6c0.1-0.2,0.3-0.3,0.6-0.2c0.3,0.1,0.4,0.4,0.3,0.7
	c-0.1,0.3-0.3,0.5-0.4,0.8c-0.2,0.6,0,1.3,0.5,1.8h-1.5"/>
<path class="st2" d="M273.6,136.2c0,20.5-15,35.8-24.8,35.8s-10.7-15.3-10.7-35.8s0.3-37.1,10.1-37.1S273.6,115.7,273.6,136.2z"/>
<path class="st3" d="M247,117.7c0.8,0.3,1.4,1,1.6,1.9c0.3,1.2-0.3,2.5-0.8,3.7c-1.2,3.3-0.8,7,1,10c-0.2,0.5-1,0.1-1.4-0.3
	c-2.1-2.5-4.6-4.6-7.4-6.2c-0.4-0.3-0.9-0.5-1.4-0.5c-1.1,0-1.7,1.3-2,2.4c-0.9,3.6-0.8,7.4,0.1,10.9c0.2,1.2,0.8,2.3,1.7,3.1
	c0.9,0.8,2.3,0.8,3.3,0c0.4-0.4,0.5-1,0.8-1.4s1-0.7,1.4-0.4s0.4,1.2,0.9,1.6c1,0.9,2.9-1.4,3.6,0c0.4,0.8-0.4,2.6-0.6,3.4
	c-0.4,1.1-0.8,2.3-1.1,3.4c-0.7,2.1-1.2,4.2-1.5,6.3c-0.2,0.9-0.2,1.9,0,2.9c0.2,0.7,0.5,1.4,0.9,2c1.5,2.2,4.1,3.3,6.7,2.9
	c0.9-0.2,1.9-0.6,2.7-1c0.5-0.2,0.9-0.4,1.3-0.7c3-2.3,6.1-4.6,8-8.1c0.9-1.5,1.3-3.3,1.1-5.1c-1,2.4-2.1,4.9-4.4,6.2
	c1.5-2.2,2.4-4.7,2.8-7.3l-2.1,2.6c-0.2,0.3-0.5,0.6-0.9,0.9c-0.3,0.2-0.8,0.3-1.2,0.1c-0.2-0.1-0.4-0.3-0.5-0.5
	c-1.1-1.4-1.8-3-2.8-4.5s-2.1-2.7-3-4.2c-0.3-0.5-0.6-1.2-0.2-1.7c0.2-0.3,0.5-0.4,0.9-0.4c1.1,0,2.2,0.2,3.2,0.6
	c1,0.4,2.2,0.1,3-0.7c0.4,1,1,1.8,1.7,2.6c0.8,0.7,1.9,0.9,2.9,0.5c0.8-0.6,1.4-1.4,1.5-2.4c0.9-3,1.3-6.1,1.3-9.2
	c0.1-1.6-0.2-3.1-0.9-4.5c-0.1-0.2,0-0.4-0.1-0.5c-1.5-2.6-3.2-5.1-5-7.5c1.1,2,2,4.1,2.6,6.3l-4-3.5l1,2.8c0.1,0.2,0,0.4-0.2,0.5
	c-0.5,0.3-0.9,0.7-1.4,1.1c-0.8,1.1-1.5,2.2-2.1,3.5c-0.2,0.6-0.8,1-1.4,1c-1.4,0.3-3.2,0.3-3.7-1c-0.2-0.8-0.1-1.6,0.4-2.3
	c1.1-2.1,2.5-4,4.3-5.6c0.6-0.5,1.2-1.1,1.7-1.7c0.5-0.7,0.6-1.5,0.3-2.3c-0.3-0.4-0.5-0.8-0.7-1.2c-0.2-0.9,0.7-1.6,1.3-2.4
	c0.9-1.6,0.7-3.5-0.5-4.9c-3.7-4.7-10.7-3.6-15.2-0.5c-3.6,2.6-6.1,6.5-7,10.9c1.3-1.5,2.8-3,4.3-4.4c1-1.1,2.4-1.9,3.9-2.2
	c0.4,0.8-0.5,1.7-1.2,2.2c-1.7,1.3-3,3.1-3.7,5.1c1.3-0.4,2.3-1.4,3.5-2.1C245,117.4,246,117.3,247,117.7z"/>
<path class="st3" d="M246.3,98.5c-9.8,0-17.7,16.6-17.7,37.1s7.9,37.1,17.7,37.1s17.7-16.6,17.7-37.1S256.1,98.5,246.3,98.5z
	 M246.3,170.6c-9.3,0-16.8-15.7-16.8-35s7.5-35,16.8-35s16.7,15.7,16.7,35S255.5,170.6,246.3,170.6z"/>
<path class="st28" d="M263,135.6c0,19.3-7.5,35-16.7,35s-16.8-15.7-16.8-35s7.5-35,16.8-35S263,116.3,263,135.6z"/>
<path class="st28" d="M263,135.6c0,19.3-7.5,35-16.7,35s-16.8-15.7-16.8-35s7.5-35,16.8-35S263,116.3,263,135.6z"/>
<ellipse class="st3" cx="243.1" cy="135.3" rx="3.1" ry="7.7"/>
<path class="st2" d="M276.1,126.3c2.1,0.3,4.2,1.1,5.9,2.3c1.8,1.3,2.8,3.3,2.8,5.5c-0.2,2.7-2.4,4.8-4.6,6.2
	c-3.5,2.2-7.4,3.7-11.4,4.2c0.7-4.5,1.1-9.1,1.1-13.6c0-1.2-0.7-4.2,0.4-5S274.9,126.1,276.1,126.3z"/>
<path class="st2" d="M215.9,110.1c-2.3-1.7-5.2-2.3-8-2.8s-6-1.1-8.9-0.6c-4,0.7-7.4,3.3-11.4,4.1c-3.8,0.8-7.7-0.2-11.4-1.4
	s-7.3-2.8-11.1-3.3s-8.1,0.2-10.8,2.9c4.6-0.9,8.4-1.1,12.8,0.7c1.6,0.8,3.2,1.6,4.8,2.6c2.7,1.6,5.6,3,8.5,4c2.1,0.8,4.4,1.2,6.7,1
	c3.5-0.4,6.4-2.6,9.4-4.4s6.8-3,9.9-1.4c1.1,0.7,2.2,1.5,3.3,2.4c4.3,2.8,9.9,2.3,13.6-1.2c-1.2,0.4-2.5,0.6-3.8,0.5
	C218.3,113.1,216.9,110.8,215.9,110.1z"/>
<path class="st2" d="M214.4,132.8c-2.4-1.6-5.3-2-8.1-2.4c-3-0.4-6-0.8-8.9-0.1c-4,0.9-7.3,3.6-11.2,4.6c-3.7,0.9-7.7,0.2-11.4-0.9
	s-7.4-2.5-11.2-2.8s-8,0.6-10.6,3.4c4.6-1.1,8.4-1.5,12.8,0.1c1.7,0.7,3.3,1.5,4.9,2.4c2.8,1.5,5.7,2.7,8.7,3.6
	c2.2,0.7,4.5,1,6.8,0.7c3.4-0.6,6.3-2.9,9.2-4.8s6.7-3.3,9.9-1.9c1.2,0.7,2.3,1.4,3.4,2.2c4.4,2.6,10,1.8,13.5-1.8
	c-1.2,0.5-2.5,0.7-3.8,0.7C217,135.6,215.5,133.5,214.4,132.8z"/>
<path class="st2" d="M219.1,151.7c-2.7-1-5.6-0.8-8.4-0.6c-3,0.1-6,0.7-8.8,1.8c-3.7,1.7-6.3,5.1-9.9,7c-3.5,1.7-7.5,1.9-11.3,1.6
	s-7.7-0.8-11.6-0.3s-7.7,2.3-9.6,5.7c4.2-2.1,7.8-3.3,12.5-2.8c1.8,0.3,3.6,0.7,5.3,1.3c3,0.8,6.2,1.4,9.3,1.6
	c2.3,0.3,4.6,0,6.8-0.8c3.2-1.3,5.4-4.3,7.9-6.7s5.8-4.7,9.2-4c1.3,0.4,2.6,0.9,3.8,1.4c4.9,1.6,10.2-0.4,12.8-4.7
	c-1.1,0.7-2.3,1.2-3.5,1.5C222.3,154,220.3,152.2,219.1,151.7z"/>
</svg>
