<svg width="24" height="24" viewBox="0 0 24 24" fill="none" xmlns="http://www.w3.org/2000/svg">
<g clip-path="url(#clip0)">
<path d="M5.62466 12.0002C5.62466 10.8099 5.95174 9.69727 6.52011 8.74284V4.69727H2.47721C0.871314 6.78306 0 9.32461 0 12.0002C0 14.6758 0.871314 17.2174 2.47721 19.3032H6.52279V15.2576C5.95174 14.3032 5.62466 13.1879 5.62466 12.0002Z" fill="#FBBD00"/>
<path d="M11.9998 18.3752L9.1875 21.1875L11.9998 23.9998C14.6754 23.9998 17.217 23.1285 19.3028 21.5226V17.4824H15.2599C14.2974 18.0535 13.1795 18.3752 11.9998 18.3752Z" fill="#0F9D58"/>
<path d="M6.52312 15.2573L2.47754 19.3029C2.79657 19.7158 3.14242 20.1099 3.51507 20.4852C5.78049 22.7506 8.79389 23.9999 12.0003 23.9999V18.3753C9.67325 18.3753 7.63572 17.1233 6.52312 15.2573Z" fill="#31AA52"/>
<path d="M24 12.0002C24 11.271 23.933 10.5391 23.8043 9.82592L23.6997 9.24951H12V14.8742H17.6917C17.1394 15.9734 16.2895 16.8715 15.2601 17.4828L19.303 21.523C19.7158 21.2039 20.1099 20.8581 20.4853 20.4854C22.7507 18.2173 24 15.2039 24 12.0002Z" fill="#3C79E6"/>
<path d="M16.5065 7.4933L17.0025 7.98928L20.9811 4.01072L20.4851 3.51475C18.2197 1.24933 15.2063 0 11.9998 0L9.1875 2.81233L11.9998 5.62467C13.7022 5.62467 15.3028 6.28686 16.5065 7.4933Z" fill="#CF2D48"/>
<path d="M12.0003 5.62467V0C8.79389 0 5.78049 1.24933 3.51507 3.51475C3.13974 3.89008 2.79389 4.28418 2.47754 4.69705L6.52312 8.74263C7.63572 6.87668 9.67325 5.62467 12.0003 5.62467Z" fill="#EB4132"/>
</g>
<defs>
<clipPath id="clip0">
<rect width="24" height="24" fill="white"/>
</clipPath>
</defs>
</svg>
